<?xml version="1.0" encoding="utf-8"?>
<!-- Generator: Adobe Illustrator 26.5.0, SVG Export Plug-In . SVG Version: 6.00 Build 0)  -->
<svg version="1.1" id="레이어_1" xmlns="http://www.w3.org/2000/svg" xmlns:xlink="http://www.w3.org/1999/xlink" x="0px"
	 y="0px" viewBox="0 0 28 33" style="enable-background:new 0 0 28 33;" xml:space="preserve">
<style type="text/css">
	.st0{display:none;fill:#FF7800;}
	.st1{display:none;fill:#D9D9D9;}
	.st2{fill:#FF7800;}
</style>
<polygon class="st0" points="25.95,33.25 13.93,22.04 1.91,33.25 1.91,-0.02 25.95,-0.02 "/>
<polygon class="st1" points="25.95,33.25 13.93,22.04 1.91,33.25 1.91,-0.02 25.95,-0.02 "/>
<g>
	<polygon class="st2" points="26.23,33.15 14.07,22.22 1.91,33.15 1.91,-0.02 26.23,-0.02 26.23,4.62 23.73,4.62 23.73,2.48 
		4.41,2.48 4.41,27.54 14.07,18.85 23.73,27.54 23.73,19.78 26.23,19.78 	"/>
	<g>
		
			<rect x="19.62" y="4.21" transform="matrix(0.7071 -0.7071 0.7071 0.7071 -2.2868 18.4412)" class="st2" width="3" height="15.54"/>
		
			<rect x="13.35" y="10.48" transform="matrix(0.7071 -0.7071 0.7071 0.7071 -2.2868 18.4412)" class="st2" width="15.54" height="3"/>
	</g>
</g>
</svg>
