<?xml version="1.0" encoding="utf-8"?>
<!-- Generator: Adobe Illustrator 26.5.0, SVG Export Plug-In . SVG Version: 6.00 Build 0)  -->
<svg version="1.1" id="Icons" xmlns="http://www.w3.org/2000/svg" xmlns:xlink="http://www.w3.org/1999/xlink" x="0px" y="0px"
	 viewBox="0 0 45 45" style="enable-background:new 0 0 45 45;" xml:space="preserve">
<style type="text/css">
	.st0{fill:none;stroke:#000000;stroke-width:1.7;stroke-linejoin:round;stroke-miterlimit:10;}
	.st1{display:none;fill:none;stroke:#000000;stroke-width:1.66;stroke-linejoin:round;stroke-miterlimit:10;}
	.st2{display:none;}
	.st3{display:inline;fill:none;stroke:#000000;stroke-width:1.66;stroke-linejoin:round;stroke-miterlimit:10;}
</style>
<g>
	<path class="st0" d="M11.6,7.8V5.4c0-1.2,1-2.2,2.2-2.2h23.8c1.2,0,2.2,1,2.2,2.2v34.1c0,1.2-1,2.2-2.2,2.2H13.7
		c-1.2,0-2.2-1-2.2-2.2v-2.4"/>
	<polyline class="st0" points="5.4,22.7 26.8,22.7 19.2,15.1 	"/>
	<line class="st0" x1="19.2" y1="30.1" x2="26.9" y2="22.4"/>
</g>
<path class="st1" d="M89.4,20.2v-1c0-0.5,0.4-0.9,0.9-0.9h9.8c0.5,0,0.9,0.4,0.9,0.9v11.2c0,0.5-0.4,0.9-0.9,0.9h-7.9"/>
<g class="st2">
	<polyline class="st3" points="91.4,24.7 97.9,24.7 94.9,21.8 	"/>
	<line class="st3" x1="94.9" y1="27.7" x2="97.9" y2="24.6"/>
</g>
<path class="st1" d="M89.6,35.4v-6.3c0-4-3.2-7.2-7.2-7.2h-4.2c-4,0-7.2,3.2-7.2,7.2v6.3H89.6z"/>
<circle class="st1" cx="80.3" cy="15.5" r="5.5"/>
</svg>
