<svg width="120" height="60" viewBox="0 0 120 60" fill="none" xmlns="http://www.w3.org/2000/svg">
<path d="M112.36 31.0458C111.765 32.4365 110.81 33.4694 109.497 34.1418C108.182 34.8171 106.632 35.1519 104.851 35.1519C102.39 35.1519 100.427 34.6197 98.9641 33.5553C97.5008 32.4908 96.8334 30.8484 96.959 28.6308C95.3897 30.7626 92.5469 32.1732 88.4307 32.8685C86.691 33.1718 85.0685 33.3893 83.5634 33.5209C82.0582 33.6525 80.5809 33.684 79.14 33.6182C77.6963 33.5524 76.2442 33.4236 74.7809 33.2262C73.3176 33.0316 71.7594 32.7598 70.1034 32.4107C68.4056 32.1074 66.973 31.4436 65.8085 30.4221C64.6413 29.4005 63.6862 28.0757 62.9462 26.4448C62.2034 24.8138 61.6728 22.9138 61.3545 20.7392C61.0361 18.5645 60.877 16.1524 60.877 13.4999C60.877 11.7173 61.1004 10.1092 61.5444 8.67566C61.9912 7.24212 62.6055 5.9917 63.3902 4.92727C64.1749 3.86285 65.0769 2.99299 66.0962 2.31771C67.1154 1.64529 68.1961 1.17602 69.3411 0.915637C70.6145 0.612333 71.8543 0.577996 73.0635 0.818351C74.2727 1.05871 75.3869 1.50222 76.4033 2.15461C77.4226 2.807 78.3134 3.62249 79.0758 4.60108C79.8381 5.57967 80.4134 6.65554 80.7932 7.8287C81.5555 10.3066 81.7147 12.8161 81.2707 15.3598C80.8267 17.9036 79.6901 20.805 77.8666 24.0641C77.7382 24.2816 77.6851 24.499 77.7074 24.7165C77.727 24.934 77.8024 25.1085 77.9308 25.2373C78.0593 25.3689 78.2185 25.4232 78.4084 25.4004C78.5983 25.3803 78.7798 25.2172 78.9501 24.9111C79.8409 23.5634 80.6563 22.3902 81.3992 21.3887C82.142 20.3901 82.9155 19.5403 83.7225 18.845C84.5268 18.1497 85.3757 17.5745 86.2693 17.1167C87.1629 16.6589 88.1989 16.3012 89.3885 16.0408C91.4662 15.563 93.1947 15.583 94.5742 16.1066C95.9537 16.6274 97.0037 17.5202 97.7242 18.7792C97.7661 16.9107 97.7242 15.0622 97.5957 13.2367C97.4673 11.4111 97.2997 9.56269 97.0875 7.69422C96.7049 4.99881 97.2578 3.04449 98.7435 1.82555C100.229 0.609471 102.265 0 104.853 0C106.635 0 108.185 0.326196 109.5 0.978587C110.816 1.63098 111.771 2.65249 112.363 4.04311L115.353 3.71692C116.839 3.49945 117.984 3.92293 118.791 4.98736C119.595 6.05179 120 7.78006 120 10.1722C120 12.5185 119.595 14.2382 118.791 15.3226C117.984 16.4099 116.839 16.8449 115.353 16.6274L113.826 16.4328V18.5846L115.353 18.39C116.839 18.2183 117.984 18.6504 118.791 19.6948C119.595 20.7392 120 22.456 120 24.8453C120 27.1916 119.595 28.9113 118.791 29.9957C117.984 31.083 116.839 31.538 115.353 31.3663L112.36 31.0458Z" fill="#FF7800"/>
<path d="M64.119 54.8467C63.9068 54.0198 63.7476 52.9782 63.6415 51.7164C63.5353 50.4574 63.4711 49.1526 63.4516 47.8049C63.4292 46.4572 63.4627 45.1753 63.5465 43.9563C63.6303 42.7402 63.7587 41.7388 63.9291 40.9576C64.2251 39.567 64.7976 38.5884 65.6465 38.0247C66.4954 37.461 67.766 37.0461 69.4639 36.7857C72.5608 36.3508 75.7861 36.0246 79.1371 35.8072C82.4882 35.5897 85.8727 35.481 89.2879 35.481C92.7032 35.481 96.0961 35.5897 99.4694 35.8072C102.843 36.0246 106.099 36.3508 109.238 36.7857C110.894 37.0461 112.134 37.461 112.96 38.0247C113.787 38.5913 114.37 39.567 114.711 40.9576C114.879 41.7388 115.007 42.7402 115.094 43.9563C115.177 45.1753 115.211 46.4572 115.189 47.8049C115.166 49.1526 115.102 50.4574 114.999 51.7164C114.893 52.9754 114.711 54.0198 114.457 54.8467C114.116 56.2373 113.577 57.2274 112.834 57.8139C112.092 58.4005 110.894 58.8011 109.238 59.0214C106.057 59.3677 102.787 59.6195 99.4387 59.7711C96.0877 59.9228 92.7143 60 89.3214 60C85.9257 60 82.5552 59.9228 79.2042 59.7711C75.8531 59.6195 72.6054 59.3677 69.4666 59.0214C67.7688 58.8469 66.5401 58.4549 65.7749 57.8483C65.0098 57.2359 64.4569 56.2373 64.119 54.8467Z" fill="#FF7800"/>
<path d="M51.4828 31.0458C50.888 32.4365 49.933 33.4694 48.6205 34.1418C47.3052 34.8171 45.7554 35.1519 43.9737 35.1519C41.5135 35.1519 39.5504 34.6197 38.0871 33.5553C36.6238 32.4908 35.9564 30.8484 36.0821 28.6308C34.5127 30.7626 31.6699 32.1732 27.5538 32.8685C25.814 33.1718 24.1916 33.3893 22.6864 33.5209C21.1812 33.6525 19.704 33.684 18.2631 33.6182C16.8193 33.5524 15.3672 33.4236 13.9039 33.2262C12.4407 33.0316 10.8824 32.7598 9.22647 32.4107C7.52862 32.1074 6.09606 31.4436 4.93158 30.4221C3.76431 29.4005 2.80927 28.0757 2.06925 26.4448C1.32645 24.8138 0.795867 22.9138 0.47752 20.7392C0.159173 18.5645 0 16.1524 0 13.4999C0 11.7173 0.223401 10.1092 0.667411 8.67566C1.11421 7.24212 1.72857 5.9917 2.51326 4.92727C3.29796 3.86285 4.19994 2.99299 5.21921 2.31771C6.23848 1.64529 7.31918 1.17602 8.46412 0.915637C9.7375 0.612333 10.9774 0.577996 12.1865 0.818351C13.3957 1.05871 14.5099 1.50222 15.5264 2.15461C16.5457 2.807 17.4365 3.62249 18.1988 4.60108C18.9612 5.57967 19.5364 6.65554 19.9162 7.8287C20.6786 10.3066 20.8378 12.8161 20.3937 15.3598C19.9497 17.9036 18.8132 20.805 16.9897 24.0641C16.8612 24.2816 16.8082 24.499 16.8305 24.7165C16.85 24.934 16.9254 25.1085 17.0539 25.2373C17.1823 25.3689 17.3415 25.4232 17.5314 25.4004C17.7213 25.3803 17.9028 25.2172 18.0732 24.9111C18.964 23.5634 19.7794 22.3902 20.5222 21.3887C21.265 20.3901 22.0385 19.5403 22.8456 18.845C23.6498 18.1497 24.4987 17.5745 25.3923 17.1167C26.286 16.6589 27.322 16.3012 28.5116 16.0408C30.5892 15.563 32.3178 15.583 33.6973 16.1066C35.0768 16.6274 36.1268 17.5202 36.8472 18.7792C36.8891 16.9107 36.8472 15.0622 36.7188 13.2367C36.5903 11.4111 36.4228 9.56269 36.2106 7.69422C35.828 4.99881 36.3809 3.04449 37.8665 1.82555C39.3521 0.609471 41.3879 0 43.9765 0C45.7582 0 47.308 0.326196 48.6233 0.978587C49.9386 1.63098 50.8936 2.65249 51.4856 4.04311L54.4764 3.71692C55.962 3.49945 57.1069 3.92293 57.914 4.98736C58.7182 6.05179 59.1231 7.78006 59.1231 10.1722C59.1231 12.5185 58.7182 14.2382 57.914 15.3226C57.1069 16.4099 55.962 16.8449 54.4764 16.6274L52.9489 16.4328V18.5846L54.4764 18.39C55.962 18.2183 57.1069 18.6504 57.914 19.6948C58.7182 20.7392 59.1231 22.456 59.1231 24.8453C59.1231 27.1916 58.7182 28.9113 57.914 29.9957C57.1069 31.083 55.962 31.538 54.4764 31.3663L51.4828 31.0458Z" fill="#FF7800"/>
<path d="M3.24227 54.8467C3.03004 54.0198 2.87087 52.9782 2.76475 51.7164C2.65864 50.4574 2.59441 49.1526 2.57486 47.8049C2.55252 46.4572 2.58603 45.1753 2.66981 43.9563C2.75358 42.7402 2.88204 41.7388 3.05238 40.9576C3.34839 39.567 3.92086 38.5884 4.76978 38.0247C5.61871 37.461 6.8893 37.0461 8.58715 36.7857C11.6841 36.3508 14.9094 36.0246 18.2604 35.8072C21.6114 35.5897 24.996 35.481 28.4112 35.481C31.8265 35.481 35.2194 35.5897 38.5927 35.8072C41.9661 36.0246 45.2222 36.3508 48.361 36.7857C50.0169 37.0461 51.2568 37.461 52.0834 38.0247C52.91 38.5913 53.4936 39.567 53.8343 40.9576C54.0018 41.7388 54.1303 42.7402 54.2169 43.9563C54.3006 45.1753 54.3341 46.4572 54.3118 47.8049C54.2895 49.1526 54.2252 50.4574 54.1219 51.7164C54.0158 52.9754 53.8343 54.0198 53.5802 54.8467C53.2395 56.2373 52.7005 57.2274 51.9577 57.8139C51.2149 58.4005 50.0169 58.8011 48.361 59.0214C45.1803 59.3677 41.9102 59.6195 38.562 59.7711C35.211 59.9228 31.8376 60 28.4447 60C25.049 60 21.6785 59.9228 18.3274 59.7711C14.9764 59.6195 11.7287 59.3677 8.58994 59.0214C6.89209 58.8469 5.66339 58.4549 4.89824 57.8483C4.13309 57.2359 3.58017 56.2373 3.24227 54.8467Z" fill="#FF7800"/>
<path d="M83.4515 48.8521C83.4515 48.8521 83.0159 54.5748 88.9193 54.5748C94.8227 54.5748 94.4233 48.8521 94.4233 48.8521" stroke="white" stroke-width="4" stroke-miterlimit="10" stroke-linecap="round" stroke-linejoin="round"/>
<path d="M96.057 47.2154C96.057 46.6231 95.761 46.6088 95.6186 46.3141C95.6102 46.294 95.5991 46.2711 95.5823 46.2597C95.3338 46.0651 95.3477 45.8219 95.3896 45.5301C95.5516 44.3712 94.8228 43.2267 93.7281 42.889C93.6024 42.849 93.5494 42.7831 93.5131 42.6601C93.1584 41.464 91.913 40.7201 90.7205 40.9948C90.5753 41.0291 90.486 40.9976 90.3799 40.8975C90.0336 40.5713 89.6203 40.3767 89.1567 40.2995C89.1149 40.2937 89.0758 40.2766 89.0339 40.2651C88.8607 40.2651 88.6876 40.2651 88.5145 40.2651C88.252 40.3424 87.9755 40.3939 87.7298 40.5084C87.484 40.6257 87.269 40.8117 87.0372 40.9604C86.987 40.9919 86.9088 41.0177 86.8529 41.0062C85.5516 40.7144 84.3508 41.4183 83.9543 42.7173C83.9208 42.8232 83.8621 42.8518 83.7756 42.8776C82.72 43.2095 82.0163 44.2367 82.0693 45.3612C82.0749 45.4929 82.0889 45.6273 82.1252 45.7532C82.1643 45.8906 82.1391 45.985 82.0414 46.0909C81.7482 46.3999 81.4019 46.6603 81.4717 47.2097C81.5415 47.7591 83.2115 48.0509 88.7965 48.0509C94.3815 48.0509 96.057 47.8077 96.057 47.2154Z" fill="white"/>
<path d="M22.5748 48.8521C22.5748 48.8521 22.1392 54.5748 28.0426 54.5748C33.946 54.5748 33.5466 48.8521 33.5466 48.8521" fill="white"/>
<path d="M22.2677 46.583C22.2957 46.5573 22.3264 46.5344 22.3571 46.5086C22.6363 46.2711 22.6782 46.1023 22.547 45.7532C22.3375 45.1838 22.4241 44.663 22.8095 44.2024C23.0301 43.9362 23.3205 43.7817 23.6584 43.7274C24.0717 43.6587 24.175 43.5528 24.2448 43.1265C24.3956 42.1937 25.3311 41.6414 26.194 41.9762C26.585 42.1279 26.7134 42.0907 26.9815 41.7673C27.526 41.1092 28.6598 40.9347 29.3188 41.7816C29.5534 42.0821 29.7154 42.1279 30.0672 41.9877C30.958 41.6328 31.8852 42.1765 32.0443 43.1465C32.1114 43.5471 32.2175 43.6587 32.614 43.7245C33.5551 43.8847 34.0829 44.8404 33.7366 45.7561C33.6053 46.1023 33.6472 46.2769 33.9321 46.5115C34.1387 46.6832 34.2979 46.8863 34.3956 47.1581H35.4596C35.306 46.8434 35.1636 46.5515 35.0211 46.2568C35.0128 46.2368 35.0016 46.2139 34.9848 46.2025C34.7363 46.0079 34.7503 45.7647 34.7922 45.4728C34.9541 44.314 34.2253 43.1694 33.1306 42.8318C33.005 42.7917 32.9519 42.7259 32.9156 42.6029C32.5609 41.4068 31.3155 40.6628 30.1231 40.9375C29.9779 40.9719 29.8885 40.9404 29.7824 40.8402C29.4361 40.5141 29.0228 40.3195 28.5593 40.2422C28.5174 40.2365 28.4783 40.2193 28.4364 40.2079C28.2633 40.2079 28.0901 40.2079 27.917 40.2079C27.6545 40.2851 27.378 40.3366 27.1323 40.4511C26.8866 40.5684 26.6715 40.7544 26.4398 40.9032C26.3895 40.9347 26.3113 40.9604 26.2554 40.949C24.9541 40.6571 23.7534 41.361 23.3568 42.6601C23.3233 42.766 23.2647 42.7946 23.1781 42.8203C22.1225 43.1522 21.4188 44.1795 21.4719 45.304C21.4775 45.4356 21.4914 45.5701 21.5277 45.696C21.5668 45.8333 21.5417 45.9278 21.4439 46.0336C21.1507 46.3427 20.9804 46.7232 20.8743 47.1524H21.8963C21.9661 46.9235 22.103 46.7433 22.2677 46.583Z" fill="white"/>
</svg>
